<svg width="1970" height="1970" viewBox="0 0 1970 1970" fill="none" xmlns="http://www.w3.org/2000/svg">
<path d="M963.333 20.9335C841.466 24.0001 716.933 50.5335 604.666 97.3335C565.066 113.867 512.133 140.8 473.999 163.734C303.199 266.8 165.999 423.467 87.5993 604.8C73.5993 637.2 58.266 677.467 59.466 678.533C60.1327 679.067 68.5327 682.4 77.9993 685.867C87.5993 689.467 105.733 696.134 118.533 700.8C131.333 705.467 142.399 709.333 143.333 709.333C144.133 709.333 145.866 706.134 147.333 702.267C152.799 686.8 171.599 640.933 179.599 623.333C290.933 380.667 507.333 202.533 769.333 138C826.133 124 891.866 114.667 948.399 112.4L970.799 111.6L962.533 124.667C945.866 151.2 932.933 182.933 928.533 208C926.933 217.467 926.533 225.867 927.066 241.333C927.733 266.533 930.266 277.2 940.399 297.867L947.599 312.267L942.799 314.267C902.399 331.067 852.933 372.133 804.533 429.333C790.266 446.133 766.799 476.4 755.999 491.734C751.199 498.534 744.133 508.8 740.133 514.4C719.733 543.333 686.399 598.133 661.333 644C645.999 671.867 619.066 725.333 610.133 745.333C593.599 782.267 587.599 796.267 577.333 822C562.266 859.733 553.466 885.067 538.533 932.934C529.466 962.4 519.999 1008.4 517.199 1036.93C511.999 1090 524.933 1112.53 560.666 1112.4C579.733 1112.4 596.133 1106.13 617.866 1090.93C638.533 1076.4 669.999 1042.93 673.466 1031.73C676.266 1022.8 669.599 1013.33 660.666 1013.33C655.599 1013.33 653.466 1015.07 644.666 1026C635.999 1036.67 621.999 1050.27 616.933 1052.93C610.933 1056 604.133 1057.33 600.666 1056C595.199 1053.87 593.999 1047.87 594.133 1023.33C595.333 878.133 677.199 652.934 779.066 514.667C817.333 462.8 864.133 417.867 900.666 398C924.133 385.2 947.599 379.2 969.333 380.4C984.799 381.333 990.666 382.934 996.666 388.267C1000.8 391.867 1001.33 393.067 1001.33 398.933C1001.33 404.933 1001.87 406.134 1006.53 410.8C1010.67 414.934 1012.67 416 1016.67 416C1023.2 416 1027.6 411.2 1032.67 398.8C1034.67 393.6 1036.8 389.333 1037.33 389.333C1037.87 389.333 1046.4 394.667 1056.13 401.067C1078.53 415.867 1087.07 421.333 1115.33 439.333C1152.93 463.067 1155.6 464.8 1185.33 483.2C1201.07 492.934 1237.07 515.2 1265.33 532.667C1385.87 607.334 1437.33 642.534 1494 689.6C1511.33 703.867 1554.4 746.8 1565.87 761.333C1595.2 798.133 1615.6 838.267 1624.13 875.6C1627.6 891.334 1628.93 920.267 1626.67 936.267C1621.07 977.6 1597.87 1020.67 1561.33 1057.47C1528.93 1090 1488.93 1107.87 1429.33 1116.27C1412.93 1118.53 1347.33 1118.53 1327.33 1116.27C1312.53 1114.53 1260.93 1107.2 1254.67 1105.87C1251.47 1105.07 1251.47 1105.07 1256.4 1102.27C1270.93 1094.13 1293.47 1074.8 1309.47 1057.07C1319.33 1046 1320 1044.93 1320 1039.2C1320 1031.2 1314.67 1025.33 1307.33 1025.33C1302.8 1025.33 1300.93 1026.8 1286 1041.07C1270.53 1056.13 1265.07 1060 1257.07 1061.87C1254.4 1062.53 1252.67 1062 1250.67 1060C1240.8 1050.13 1257.07 982.534 1284.67 919.333C1293.2 899.867 1309.87 866.134 1317.47 853.067C1320.27 848.267 1322.67 842.667 1322.67 840.667C1322.67 831.334 1315.6 824 1306.67 824C1302.4 824 1268 840.667 1244.53 854C1227.87 863.6 1195.33 885.2 1189.73 890.533C1186 893.867 1185.33 895.467 1185.33 900.667C1185.33 906 1186 907.6 1189.87 911.467C1196.67 918.267 1198.27 917.867 1214.4 905.6C1219.73 901.6 1224.4 898.533 1224.67 898.933C1225.07 899.333 1222.53 905.2 1219.2 912.134C1185.73 980.267 1166.27 1053.2 1173.87 1082.67C1175.07 1087.47 1176.93 1092.67 1178.13 1094.27C1180.53 1098 1183.07 1097.87 1150 1095.33C1136.13 1094.27 1119.07 1093.33 1112.4 1093.33C1105.6 1093.33 1100 1093.07 1100 1092.8C1100 1092.53 1107.73 1084.67 1117.07 1075.2C1126.4 1065.73 1136 1055.07 1138.4 1051.47C1145.87 1040 1143.47 1029.47 1132.67 1026.53C1126 1024.67 1122.8 1026.67 1112.8 1039.2C1097.73 1058.13 1089.87 1064.4 1078.8 1066.13C1071.2 1067.33 1060.67 1062 1052.4 1052.67C1039.07 1037.73 1024 1007.6 1015.33 978.4L1010.93 963.333L1014.93 956C1031.2 926.8 1050.93 903.2 1069.33 891.333C1082.67 882.667 1093.07 879.333 1107.07 879.333C1118 879.333 1118.93 879.6 1121.47 882.667C1124.93 887.067 1124.27 895.733 1119.73 905.333C1117.07 910.933 1116.53 913.333 1117.47 916.533C1120.67 927.6 1133.2 931.067 1140 922.8C1144.8 917.2 1154.93 897.467 1159.47 885.333C1164.67 870.933 1164.8 856.933 1159.6 846.4C1152.53 831.867 1141.33 825.067 1123.33 824.267C1104.67 823.467 1090.4 828 1070.4 841.333C1057.2 850.267 1027.73 880.8 1014.4 899.734L1002.8 916L1002.13 910.4C1001.73 907.2 1000.53 896.4 999.333 886.267C995.199 852 987.466 833.2 974.666 826.667C968.266 823.334 954.266 823.067 944.533 826C936.666 828.267 923.866 836.267 915.066 844.267C901.199 857.067 884.666 883.6 883.066 896C881.866 905.067 886.799 910.667 895.733 910.667C901.599 910.667 904.533 907.6 912.133 893.734C919.066 881.2 926.266 872 928.933 872C929.733 872 930.933 879.734 931.866 889.6C936.133 939.2 937.866 954 940.933 968.667C942.666 977.467 944.533 985.067 944.799 985.467C945.466 986.534 932.666 1005.6 923.733 1016.93C913.866 1029.33 897.466 1044.13 888.533 1048.53C883.333 1051.2 877.999 1052.67 872.533 1053.07C864.933 1053.6 864.266 1053.33 861.599 1050C858.133 1045.6 857.866 1039.47 860.799 1030C864.399 1018.53 859.333 1010.4 848.666 1010.4C842.533 1010.4 840.266 1012.53 834.666 1023.73L830.399 1032L826.399 1028.67C823.866 1026.53 820.799 1025.33 817.733 1025.33C813.466 1025.33 811.333 1026.93 796.799 1041.2C780.933 1056.67 776.399 1060.13 768.933 1061.87C759.866 1064 757.466 1057.33 759.866 1036.67C764.799 993.334 791.066 922.8 826.933 856C833.999 842.933 834.399 841.6 833.333 836.667C831.599 829.2 825.599 824 818.533 824C805.999 824 718.933 873.467 701.066 890.8C695.333 896.267 694.666 900.267 698.266 907.6C699.599 910.534 702.133 913.067 704.933 914.134C710.533 916.534 714.133 914.934 727.333 904.667C732.399 900.667 736.666 897.6 736.933 897.734C737.066 898 734.933 902.934 731.999 908.667C702.133 969.867 685.999 1021.73 684.399 1061.47C683.466 1082.53 685.066 1089.47 692.799 1098.53C699.333 1106 708.399 1110.4 721.333 1112.13C748.133 1115.73 773.599 1103.2 808.533 1069.47C816.533 1061.73 822.666 1056.53 822.133 1058C820.133 1063.07 819.599 1090 821.333 1095.47C825.599 1108.93 837.866 1114.8 855.466 1112C876.266 1108.67 895.599 1097.6 915.733 1077.6C926.799 1066.4 947.733 1040.27 954.133 1029.47C955.466 1027.2 956.933 1025.33 957.466 1025.33C957.866 1025.33 958.933 1027.87 959.866 1030.93C963.199 1042.53 978.666 1071.87 987.333 1083.2C992.133 1089.47 995.866 1094.67 995.733 1094.8C994.133 1095.2 989.866 1095.73 981.333 1096.53C931.733 1101.07 874.933 1114.13 828.133 1131.47C817.466 1135.47 794.266 1145.87 776.666 1154.53C759.066 1163.33 735.199 1174.4 723.599 1179.2C700.266 1188.93 695.599 1191.2 701.999 1189.87C704.266 1189.47 706.933 1188.8 707.999 1188.53C714.399 1186.4 705.199 1191.33 691.333 1197.33C631.866 1223.07 555.599 1243.73 531.466 1240.67C513.466 1238.4 497.199 1232 485.333 1222.53L478.533 1217.2L464.266 1219.47C456.399 1220.8 449.466 1222.27 448.799 1222.8C448.133 1223.33 454.799 1230.93 463.466 1239.6C479.066 1255.07 489.333 1262.4 503.999 1268.67C512.266 1272.13 512.133 1272 519.466 1284.4C537.599 1315.47 702.533 1589.73 712.533 1605.6C713.466 1607.33 723.866 1624.27 735.333 1643.33C778.533 1714.4 818.533 1779.33 853.599 1835.07C860.933 1846.67 866.666 1856.4 866.399 1856.67C866.133 1857.07 855.999 1855.73 843.999 1854C685.199 1830 537.599 1765.87 414.666 1667.47C331.199 1600.53 261.199 1519.33 206.666 1426C185.999 1390.53 169.466 1356.93 149.999 1310.67C146.399 1302.27 143.199 1294.93 142.666 1294.27C142.266 1293.73 129.333 1298.53 113.866 1304.8C98.5327 1311.07 79.866 1318.67 72.3993 1321.6C64.7993 1324.53 58.666 1327.6 58.666 1328.53C58.666 1332.67 81.9993 1385.33 98.266 1417.87C166.799 1554.93 266.266 1672.93 389.999 1763.6C433.199 1795.2 467.199 1816.4 513.199 1840.4C563.999 1866.93 612.133 1887.33 665.066 1904.53C741.066 1929.33 816.799 1944.67 901.333 1952.27C927.466 1954.67 1039.6 1954.67 1063.33 1952.27C1112.4 1947.47 1147.73 1942.27 1184.27 1934.8C1403.6 1889.6 1600.13 1772.53 1740.67 1603.33C1782.93 1552.4 1814.67 1505.73 1846.27 1448C1863.07 1417.47 1886.93 1366.67 1894.27 1346C1897.6 1336.67 1907.2 1298 1908.67 1287.47L1909.6 1282L1889.07 1277.6C1836.93 1266.53 1821.33 1263.47 1820.53 1264.27C1820.13 1264.8 1818.93 1268.67 1818 1272.93C1817.07 1277.2 1814.93 1286.67 1813.33 1294C1809.73 1310.67 1804.27 1325.2 1791.33 1353.33C1705.33 1540.27 1554.27 1691.2 1364.53 1779.87C1261.73 1827.87 1153.73 1855.2 1037.33 1862.8C1013.07 1864.4 922.133 1863.6 912.266 1861.87L907.866 1861.07L911.333 1856.67C939.599 1819.6 1006.27 1718.53 1075.33 1608C1103.47 1562.93 1103.87 1562.4 1164.67 1463.33C1198.8 1407.73 1212.13 1385.73 1279.47 1273.33C1312.67 1218 1340.67 1171.6 1341.6 1170.4C1343.2 1168.4 1344.53 1168.27 1354.67 1169.6C1372.67 1171.87 1423.07 1171.47 1444.67 1168.8C1470.27 1165.6 1493.73 1160.93 1515.33 1154.67C1652.27 1114.53 1733.6 1013.87 1725.2 894.533C1721.07 834.667 1702.67 780 1669.87 730.667C1654.67 707.6 1643.87 694.533 1621.33 671.867C1594.53 644.933 1564 620.4 1526 595.2C1476.53 562.267 1458.93 552.4 1320.67 480C1245.73 440.8 1201.47 415.334 1158 386.267C1144.8 377.467 1131.6 368.533 1128.67 366.4C1116.53 357.6 1092.53 339.6 1090 337.6C1088.53 336.4 1084.67 333.2 1081.33 330.667C1057.2 312.134 1010 270.267 1001.73 260.267C994.533 251.334 985.066 232 981.733 219.333C979.866 212 979.333 204.933 979.333 186C979.333 159.6 980.533 151.333 988.399 126.667L992.799 112.667L1020.67 112.8C1061.47 113.067 1104.27 117.333 1152.67 126.133C1290.53 151.2 1418.67 206.8 1530 289.6C1642.67 373.467 1732.67 481.2 1793.87 605.2C1800.53 618.8 1807.33 632.934 1808.93 636.667C1815.6 652.534 1826.8 678 1827.33 678.4C1827.6 678.667 1841.47 673.2 1858.27 666.267C1874.93 659.2 1891.73 652.4 1895.33 650.933C1899.07 649.467 1904.27 647.334 1906.93 646.134L1911.87 644L1908 635.067C1893.73 601.067 1887.2 586.933 1874.53 561.333C1768.67 348.933 1584.4 180.534 1360 91.3335C1349.33 87.2002 1338 82.6668 1334.67 81.3335C1316.53 74.1335 1259.73 56.8002 1231.33 49.8668C1146.13 28.9335 1050.93 18.6668 963.333 20.9335ZM1052 1136C1094 1138 1173.33 1145.33 1210.67 1150.67C1215.47 1151.33 1220.13 1152 1221.07 1152C1223.33 1152 1216.13 1165.73 1200.8 1190.13C1176.13 1229.6 1151.6 1261.2 1123.2 1290.53C1061.07 1354.8 999.999 1389.2 927.333 1400.8C908.399 1403.87 863.599 1403.87 829.333 1400.8C733.466 1392.27 659.999 1370.53 610.933 1336.27C598.266 1327.47 579.999 1309.47 572.399 1298.4C564.933 1287.6 560.799 1280.13 561.733 1279.2C562.133 1278.8 568.533 1277.6 576.133 1276.53C615.199 1271.07 643.866 1258 716.666 1212C752.799 1189.2 780.399 1173.6 793.066 1168.67C861.466 1142.4 949.599 1131.2 1052 1136Z" fill="black"/>
<path d="M885.466 674.8C866.799 688.133 856.266 697.467 835.999 718.267C810.933 743.867 808.933 746.267 805.999 753.733C803.466 760.533 803.999 772.8 807.199 780.667C809.999 787.333 817.066 794.533 821.733 795.333C829.333 796.8 832.266 794.533 840.666 780.4C860.533 746.8 881.999 718.267 903.199 697.2C911.466 688.8 915.999 683.333 915.999 681.333C915.999 674.267 908.533 666.8 901.333 666.8C897.733 666.667 894.133 668.533 885.466 674.8Z" fill="black"/>
<path d="M1376 673.467C1345.87 694.533 1302.13 737.333 1295.6 751.867C1290 764.533 1295.07 786.133 1305.33 792.933C1315.33 799.867 1320.27 796.4 1334.13 772.933C1351.33 743.733 1376 711.733 1395.87 692.933C1402.93 686 1404 684.533 1404 680.133C1404 673.733 1398.4 668.133 1391.2 667.067C1386.53 666.533 1384.93 667.2 1376 673.467Z" fill="black"/>
<path d="M401.733 826.667C376.799 833.2 353.999 847.2 331.333 870C310.399 890.8 294.533 913.867 280.266 944C256.266 994.8 251.333 1045.47 267.333 1077.33C279.333 1101.07 301.199 1112.13 336.666 1112.4C369.466 1112.53 392.133 1105.73 421.199 1087.07C441.999 1073.6 466.666 1050.93 471.733 1040.53C474.266 1035.2 473.066 1028 468.666 1023.07C466.133 1020 464.399 1019.33 459.466 1019.33C453.599 1019.33 453.066 1019.73 444.533 1029.07C420.266 1055.6 385.466 1067.2 358.133 1057.87C349.333 1054.8 341.199 1046.53 337.333 1036.53C334.799 1030 334.133 1025.47 333.733 1010C333.466 999.733 333.733 987.733 334.266 983.333L335.333 975.333L342.666 974.4C346.666 973.733 359.599 971.467 371.333 969.2C423.866 959.067 459.599 944.8 479.466 926.267C490.666 915.867 495.199 908.8 498.133 897.067C505.733 867.333 483.199 835.067 448.533 826.133C436.933 823.2 414.133 823.467 401.733 826.667ZM411.066 872.4C419.999 879.2 424.266 890.4 422.666 902.267C420.399 918.133 399.333 931.6 364.933 939.2C341.333 944.267 339.999 944.4 339.999 940.933C339.999 934.933 346.933 912.267 351.999 901.867C363.066 878.933 378.799 867.6 398.133 868.4C404.666 868.667 407.333 869.467 411.066 872.4Z" fill="black"/>
<path d="M1422.67 826.133C1404.4 831.067 1379.07 847.467 1361.6 866C1345.33 883.067 1343.47 888.267 1350.8 896.667C1354.13 900.4 1355.87 901.333 1359.87 901.333C1366.27 901.333 1370.13 898.533 1379.73 887.2C1384.13 882 1390.67 875.867 1394.13 873.6C1399.87 869.733 1408.67 866.8 1410.13 868.267C1411.33 869.6 1407.6 897.867 1403.2 920C1392.4 974.533 1374.13 1035.07 1354.67 1080.67C1346.53 1099.87 1348.13 1108.8 1360.13 1112C1374.67 1116 1416.67 1103.73 1424 1093.33C1425.47 1091.2 1429.2 1081.2 1432.13 1071.2C1460.13 975.467 1490.4 919.067 1523.2 901.867C1531.33 897.6 1534.13 896.8 1543.33 896.267C1552.67 895.733 1554.4 896.133 1557.47 898.533C1559.6 900.133 1561.33 903.2 1561.87 906C1563.2 912.533 1567.73 917.2 1573.73 918.267C1578.13 918.933 1579.2 918.533 1583.2 914.267C1588.67 908.533 1602 882.267 1604.67 872C1608.67 856.8 1606.67 845.867 1597.73 836C1589.2 826.533 1580.13 823.467 1562.4 824.267C1547.2 824.933 1538 827.6 1525.47 834.933C1516 840.533 1497.47 859.067 1488 872.4L1480.67 882.8L1480 865.067C1479.47 850 1478.8 846.4 1476.13 840.933C1470.27 829.067 1459.87 824 1441.47 824.133C1435.2 824.133 1426.67 825.067 1422.67 826.133Z" fill="black"/>
<path d="M62.9331 950.8C34.1331 956.4 13.0664 986.534 18.3997 1014.8C21.7331 1033.07 33.5997 1048.53 50.2664 1056.4C58.7997 1060.4 60.1331 1060.67 74.6664 1060.67C89.1997 1060.67 90.5331 1060.4 99.0664 1056.4C115.466 1048.67 127.733 1032.27 130.533 1014.4C136.666 976 101.733 943.067 62.9331 950.8Z" fill="black"/>
<path d="M1881.73 951.334C1864.4 956 1851.47 966.534 1843.73 982.267C1839.6 990.8 1839.33 992.134 1839.33 1005.33C1839.47 1016.67 1840 1020.8 1842.4 1026.8C1846.8 1037.73 1859.2 1050.8 1870.4 1056.27C1878.93 1060.4 1880 1060.67 1894.67 1060.67C1915.33 1060.67 1922.13 1058 1935.2 1044.8C1948 1032 1951.33 1023.47 1951.33 1004.67C1951.2 992.4 1950.93 990.667 1946.93 982.267C1935.07 957.867 1906.93 944.534 1881.73 951.334Z" fill="black"/>
</svg>
